<svg width="96" height="96" xmlns="http://www.w3.org/2000/svg" xmlns:xlink="http://www.w3.org/1999/xlink" xml:space="preserve" overflow="hidden"><g transform="translate(-592 -312)"><path d="M611.054 404.688 612.923 398.987 614.824 399.61 612.954 405.311Z"/><path d="M625.997 359.075 627.865 353.373 629.766 353.995 627.898 359.697Z"/><path d="M614.789 393.284 616.659 387.583 618.559 388.206 616.69 393.907Z"/><path d="M622.262 370.478 624.129 364.776 626.029 365.398 624.163 371.1Z"/><path d="M618.526 381.881 620.395 376.179 622.295 376.802 620.426 382.504Z"/><path d="M650.244 353.994 652.145 353.371 654.012 359.073 652.112 359.696Z"/><path d="M661.45 388.205 663.351 387.582 665.22 393.284 663.319 393.907Z"/><path d="M665.186 399.609 667.087 398.987 668.955 404.689 667.054 405.311Z"/><path d="M657.716 376.802 659.616 376.179 661.485 381.881 659.585 382.504Z"/><path d="M653.98 365.399 655.88 364.776 657.749 370.477 655.849 371.1Z"/><path d="M648.152 372.1 635.858 365 628.758 377.294 641.052 384.394ZM631.492 376.564 636.592 367.734 645.422 372.834 640.322 381.664Z"/><path d="M643.8 386.362 648.163 393.2 655.005 388.838 650.643 382ZM648.773 390.442 646.562 386.973 650.031 384.762 652.242 388.231Z"/><path d="M634.005 397.919 641.924 399.505 643.509 391.586 635.59 390ZM637.159 392.354 641.159 393.154 640.359 397.154 636.359 396.354Z"/><path d="M621.04 349.25 617.372 352.811C617.353 352.802 617.337 352.789 617.318 352.781 616.077 352.247 614.638 352.821 614.105 354.062 613.571 355.303 614.144 356.741 615.385 357.275 616.626 357.809 618.065 357.235 618.599 355.994 618.827 355.464 618.86 354.87 618.692 354.317L623.562 349.588C622.707 349.483 621.867 349.37 621.04 349.25Z"/><path d="M663.755 357.841C665.004 358.317 666.402 357.69 666.878 356.441 667.354 355.192 666.727 353.794 665.478 353.318 664.953 353.121 664.376 353.113 663.847 353.297L659.838 349.419C659.007 349.536 658.16 349.645 657.297 349.744L662.383 354.663C662.375 354.682 662.363 354.698 662.355 354.718 661.879 355.967 662.506 357.365 663.755 357.841 663.755 357.841 663.755 357.841 663.755 357.841Z"/><path d="M657.41 327.442C654.747 320.557 648.148 315.998 640.766 315.942L640.63 315.942C633.369 315.952 626.825 320.323 624.036 327.027 620.391 327.394 616.772 327.984 613.2 328.794 604.494 330.842 600.247 333.738 600.218 337.647 600.196 340.471 602.487 342.863 607.026 344.757 608.989 345.549 611.008 346.197 613.066 346.695 621.912 348.692 630.956 349.676 640.025 349.627 640.425 349.627 640.823 349.627 641.219 349.627 649.887 349.737 658.54 348.89 667.022 347.1 675.729 345.051 679.976 342.155 680.005 338.246 680.053 331.8 667.845 328.815 657.41 327.442ZM640.63 317.936 640.751 317.936C649.575 318.003 656.674 325.21 656.607 334.033 656.607 334.034 656.607 334.035 656.607 334.036 656.598 335.236 655.752 336.328 654.092 337.27 651.352 338.825 646.286 339.79 640.87 339.79 636.692 339.89 632.531 339.213 628.6 337.793 628.091 337.583 627.597 337.34 627.121 337.065 625.476 336.1 624.647 335 624.656 333.792 624.745 325.026 631.864 317.96 640.63 317.936ZM666.564 345.153C657.844 346.98 648.945 347.81 640.038 347.627 631.129 347.677 622.243 346.713 613.551 344.755 611.592 344.282 609.669 343.666 607.8 342.912 604.083 341.361 602.206 339.595 602.221 337.662 602.241 334.89 606.197 332.497 613.661 330.741 616.85 330.018 620.078 329.478 623.329 329.123 622.903 330.638 622.678 332.203 622.661 333.777 622.651 335.132 623.241 337.102 626.114 338.789 626.668 339.111 627.244 339.395 627.836 339.639 632.01 341.159 636.43 341.887 640.87 341.787 646.385 341.787 651.842 340.844 655.079 339.007 657.979 337.362 658.597 335.402 658.607 334.047 658.615 332.533 658.433 331.024 658.065 329.555 670.599 331.31 678.032 334.522 678.005 338.231 677.984 341 674.028 343.4 666.564 345.153Z"/><path d="M606.677 336.584C605.577 336.458 604.635 336.853 604.565 337.467 604.495 338.081 605.325 338.68 606.421 338.807 607.517 338.934 608.463 338.538 608.534 337.924 608.605 337.31 607.773 336.71 606.677 336.584Z"/><path d="M640.583 343.847C639.483 343.793 638.564 344.247 638.534 344.867 638.504 345.487 639.373 346.028 640.475 346.082 641.577 346.136 642.494 345.682 642.524 345.061 642.554 344.44 641.685 343.9 640.583 343.847Z"/><path d="M673.945 336.665C672.845 336.539 671.903 336.934 671.833 337.547 671.763 338.16 672.593 338.761 673.689 338.887 674.785 339.013 675.731 338.619 675.802 338.005 675.873 337.391 675.041 336.791 673.945 336.665Z"/><path d="M629.2 329.207C629.338 329.277 629.491 329.313 629.646 329.313 630.027 329.315 630.376 329.101 630.546 328.76 631.563 326.733 633.091 325.006 634.979 323.75 635.437 323.442 635.559 322.82 635.25 322.362 634.944 321.907 634.329 321.784 633.871 322.085 631.693 323.534 629.93 325.526 628.757 327.865 628.509 328.358 628.707 328.958 629.2 329.207Z"/></g></svg>